<svg width="128" height="128" viewBox="0 0 128 128" fill="none" xmlns="http://www.w3.org/2000/svg">
<rect width="128" height="128" fill="#6675FF"/>
<path d="M94.6357 43.7982L64.5243 29.5178C64.0973 29.3137 63.6046 29.3137 63.174 29.5178L33.2961 43.6869C32.7341 43.9541 32.3765 44.5256 32.3765 45.1565V84.116C32.3765 84.4314 32.5553 84.7172 32.8363 84.8508L63.174 99.2352C63.601 99.4393 64.0937 99.4393 64.5243 99.2352L94.862 84.8508C95.143 84.7172 95.3218 84.4314 95.3218 84.116V61.1812L103.445 57.329C103.898 57.1138 104.048 56.5349 103.756 56.1229L95.7634 44.752C95.4751 44.3401 95.0846 44.0135 94.6357 43.7982ZM64.5243 31.648L89.2747 43.3863C89.8878 43.6758 89.8878 44.5664 89.2747 44.8559L64.5243 56.5942C64.0973 56.7983 63.6046 56.7983 63.174 56.5942L38.4236 44.8559C37.8105 44.5664 37.8105 43.6758 38.4236 43.3863L63.174 31.648C63.601 31.4439 64.0937 31.4439 64.5243 31.648ZM77.3301 77.603C76.7681 77.8702 76.4105 78.4417 76.4105 79.0726V91.464L67.2322 95.8172C66.703 96.0696 66.0972 95.6762 66.0972 95.0824V62.2426L72.4545 71.2866C72.6771 71.6058 73.0932 71.7134 73.4398 71.5501L93.0701 62.2426V83.0472C93.0701 83.3626 92.8913 83.6484 92.6103 83.782L85.399 87.2037V75.0497C85.399 74.4559 84.7932 74.0625 84.2641 74.3149" fill="#F4F4F9"/>
</svg>
